<svg xmlns="http://www.w3.org/2000/svg" viewBox="0 0 128 128" role="img" aria-label="AI Page Summary icon">
  <defs>
    <linearGradient id="bg" x1="18" y1="12" x2="112" y2="118" gradientUnits="userSpaceOnUse">
      <stop offset="0" stop-color="#0f766e"/>
      <stop offset="0.52" stop-color="#2563eb"/>
      <stop offset="1" stop-color="#7c3aed"/>
    </linearGradient>
    <linearGradient id="paper" x1="39" y1="24" x2="91" y2="105" gradientUnits="userSpaceOnUse">
      <stop offset="0" stop-color="#ffffff"/>
      <stop offset="1" stop-color="#e0f2fe"/>
    </linearGradient>
    <filter id="shadow" x="-20%" y="-20%" width="140%" height="150%">
      <feDropShadow dx="0" dy="8" stdDeviation="8" flood-color="#0f172a" flood-opacity="0.28"/>
    </filter>
  </defs>

  <rect x="8" y="8" width="112" height="112" rx="26" fill="url(#bg)"/>

  <g filter="url(#shadow)">
    <path d="M37 24h39l20 20v57c0 6.1-4.9 11-11 11H37c-6.1 0-11-4.9-11-11V35c0-6.1 4.9-11 11-11z" fill="url(#paper)"/>
    <path d="M76 24v16c0 3.3 2.7 6 6 6h14L76 24z" fill="#bfdbfe"/>
  </g>

  <path d="M43 55h37" stroke="#1e40af" stroke-width="6" stroke-linecap="round"/>
  <path d="M43 70h28" stroke="#1e40af" stroke-width="6" stroke-linecap="round" opacity="0.78"/>
  <path d="M43 85h21" stroke="#1e40af" stroke-width="6" stroke-linecap="round" opacity="0.55"/>

  <circle cx="88" cy="82" r="22" fill="#0f172a"/>
  <path d="M89 65l4.6 11.1L105 81l-11.4 4.6L89 97l-4.6-11.4L73 81l11.4-4.9L89 65z" fill="#facc15"/>
  <path d="M80 82l5.8 5.8L98 74.5" fill="none" stroke="#ffffff" stroke-width="5" stroke-linecap="round" stroke-linejoin="round"/>
</svg>
